#!OML:ASF H:\Dans Jumps\Project 1\Capture day 1\Session 1\subject.ASF
:FULLY-SPECIFIED
:DEGREES
493
root 0.362451 17.7312 -2.62386 6.43298 -0.661209 -1.21701
lowerback -0.716327 -0.0386813 -0.103892
upperback 4.05282 -0.100203 1.30076
thorax 4.58123 -0.081237 1.39634
lowerneck -11.8575 0.351211 -2.14112
upperneck 36.3681 0.579992 1.45667
head 14.4723 0.149976 1.06899
rclavicle 3.8266e-015 1.21259e-014
rhumerus -21.7621 -13.1725 -83.3197
rradius 24.1026
rwrist 31.9968
rhand -18.7626 -25.7924
rfingers 7.12502
rthumb 7.5343 -55.6382
lclavicle 3.8266e-015 1.21259e-014
lhumerus -19.2182 -1.91506 88.6549
lradius 18.3253
lwrist 4.47825
lhand -26.0307 -4.49641
lfingers 7.12502
lthumb 0.516138 25.4827
rfemur -15.9953 -0.655309 18.76
rtibia 23.3319
rfoot -12.4586 0.729717
rtoes 14.4372
lfemur -14.3008 6.50582 -17.4458
ltibia 20.3656
lfoot -9.09102 5.73035
ltoes 2.41948
494
root 0.362756 17.7314 -2.62516 6.43802 -0.65194 -1.20896
lowerback -0.723091 -0.0392272 -0.108249
upperback 4.05119 -0.100607 1.29556
thorax 4.58338 -0.0814911 1.3934
lowerneck -11.852 0.347169 -2.14142
upperneck 36.372 0.572774 1.46003
head 14.473 0.147278 1.06934
rclavicle 1.68967e-015 -9.93923e-016
rhumerus -21.7665 -13.2001 -83.3142
rradius 24.1012
rwrist 32.0126
rhand -18.7647 -25.7955
rfingers 7.12502
rthumb 7.53227 -55.6414
lclavicle 1.68967e-015 -9.93923e-016
lhumerus -19.2205 -1.89564 88.6608
lradius 18.3319
lwrist 4.46571
lhand -26.0195 -4.48676
lfingers 7.12502
lthumb 0.526913 25.4923
rfemur -16.0065 -0.668059 18.7506
rtibia 23.3353
rfoot -12.4572 0.730556
rtoes 14.422
lfemur -14.3076 6.49778 -17.4564
ltibia 20.356
lfoot -9.08351 5.72386
ltoes 2.44342
495
root 0.363139 17.7316 -2.62624 6.44362 -0.641969 -1.2
lowerback -0.733665 -0.0411597 -0.114322
upperback 4.05006 -0.10287 1.29121
thorax 4.58828 -0.0827644 1.39222
lowerneck -11.8445 0.344639 -2.1445
upperneck 36.3744 0.568089 1.46453
head 14.4725 0.145443 1.071
rclavicle 4.96962e-017 1.96797e-014
rhumerus -21.7712 -13.2246 -83.3078
rradius 24.1006
rwrist 32.0273
rhand -18.7675 -25.7961
rfingers 7.12502
rthumb 7.52961 -55.6421
lclavicle 4.96962e-017 1.96797e-014
lhumerus -19.2217 -1.86782 88.6655
lradius 18.3351
lwrist 4.4513
lhand -26.0049 -4.47056
lfingers 7.12502
lthumb 0.541018 25.5085
rfemur -16.0163 -0.681258 18.7399
rtibia 23.3361
rfoot -12.4547 0.732143
rtoes 14.4146
lfemur -14.3149 6.4928 -17.4689
ltibia 20.3466
lfoot -9.07664 5.71489
ltoes 2.45724
496
root 0.36354 17.7318 -2.62723 6.44942 -0.631677 -1.19739
lowerback -0.745312 -0.043464 -0.113517
upperback 4.04958 -0.10592 1.28832
thorax 4.59446 -0.0842089 1.38864
lowerneck -11.8401 0.34343 -2.14428
upperneck 36.3772 0.56572 1.46574
head 14.4729 0.144602 1.07111
rclavicle 2.43511e-015 3.97569e-015
rhumerus -21.7729 -13.2525 -83.3018
rradius 24.0977
rwrist 32.0429
rhand -18.7694 -25.7946
rfingers 7.12502
rthumb 7.52778 -55.6407
lclavicle 2.43511e-015 3.97569e-015
lhumerus -19.2238 -1.83438 88.668
lradius 18.3386
lwrist 4.43479
lhand -25.9801 -4.43181
lfingers 7.12502
lthumb 0.564931 25.5472
rfemur -16.023 -0.690695 18.7359
rtibia 23.3311
rfoot -12.4489 0.731128
rtoes 14.4074
lfemur -14.3246 6.49187 -17.4747
ltibia 20.3407
lfoot -9.07099 5.70298
ltoes 2.46603
497
root 0.363994 17.7321 -2.62804 6.4535 -0.622939 -1.20156
lowerback -0.757387 -0.0455464 -0.105945
upperback 4.0499 -0.109002 1.2879
thorax 4.60172 -0.0854751 1.38384
lowerneck -11.834 0.342697 -2.14962
upperneck 36.3777 0.564271 1.47052
head 14.4717 0.143888 1.07376
rclavicle -1.09332e-015 3.37934e-015
rhumerus -21.7756 -13.2796 -83.2944
rradius 24.0958
rwrist 32.0576
rhand -18.7715 -25.792
rfingers 7.12502
rthumb 7.52567 -55.6381
lclavicle -1.09332e-015 3.37934e-015
lhumerus -19.226 -1.79769 88.6705
lradius 18.339
lwrist 4.41963
lhand -25.9481 -4.37868
lfingers 7.12502
lthumb 0.595889 25.6002
rfemur -16.0246 -0.697275 18.7391
rtibia 23.3211
rfoot -12.4415 0.729976
rtoes 14.4107
lfemur -14.3334 6.49428 -17.473
ltibia 20.3378
lfoot -9.06815 5.6911
ltoes 2.46875
498
root 0.364436 17.7323 -2.62878 6.45589 -0.614856 -1.21265
lowerback -0.767059 -0.0467777 -0.0908578
upperback 4.05063 -0.111233 1.28876
thorax 4.60801 -0.0860593 1.37617
lowerneck -11.8311 0.342577 -2.14912
upperneck 36.3797 0.564114 1.47004
head 14.4719 0.143817 1.07346
rclavicle 1.09332e-015 1.39149e-015
rhumerus -21.7792 -13.3049 -83.2883
rradius 24.0967
rwrist 32.0643
rhand -18.7531 -25.7973
rfingers 7.12502
rthumb 7.54343 -55.6428
lclavicle 1.09332e-015 1.39149e-015
lhumerus -19.2278 -1.76012 88.6719
lradius 18.3378
lwrist 4.40513
lhand -25.9123 -4.31141
lfingers 7.12502
lthumb 0.630402 25.6674
rfemur -16.0219 -0.699583 18.75
rtibia 23.3066
rfoot -12.4317 0.725988
rtoes 14.4151
lfemur -14.3418 6.49842 -17.4633
ltibia 20.3386
lfoot -9.06721 5.67885
ltoes 2.47245
499
root 0.3649 17.7325 -2.6295 6.45744 -0.607279 -1.22264
lowerback -0.775462 -0.0476204 -0.0759465
upperback 4.05149 -0.112911 1.28901
thorax 4.61369 -0.0863597 1.368
lowerneck -11.8291 0.342338 -2.14812
upperneck 36.3808 0.563921 1.46891
head 14.472 0.143722 1.07279
rclavicle -2.88238e-015 -5.1684e-015
rhumerus -21.7825 -13.3263 -83.2831
rradius 24.098
rwrist 32.0634
rhand -18.7392 -25.7985
rfingers 7.12502
rthumb 7.55687 -55.6436
lclavicle -2.88238e-015 -5.1684e-015
lhumerus -19.2296 -1.72554 88.6735
lradius 18.3342
lwrist 4.39236
lhand -25.8883 -4.25857
lfingers 7.12502
lthumb 0.653586 25.7202
rfemur -16.0179 -0.700909 18.7594
rtibia 23.2922
rfoot -12.4223 0.721281
rtoes 14.4264
lfemur -14.3488 6.50052 -17.4545
ltibia 20.3393
lfoot -9.06666 5.669
ltoes 2.47608
500
root 0.365365 17.7326 -2.63019 6.45791 -0.60119 -1.23295
lowerback -0.783034 -0.0475122 -0.0599714
upperback 4.05204 -0.113325 1.28867
thorax 4.61854 -0.0859739 1.35868
lowerneck -11.8262 0.342393 -2.14511
upperneck 36.3827 0.563967 1.46676
head 14.4723 0.143867 1.07139
rclavicle -1.2424e-015 -1.66979e-014
rhumerus -21.7876 -13.3502 -83.2778
rradius 24.101
rwrist 32.0623
rhand -18.7002 -25.8103
rfingers 7.12502
rthumb 7.59453 -55.6539
lclavicle -1.2424e-015 -1.66979e-014
lhumerus -19.2333 -1.69647 88.6755
lradius 18.3285
lwrist 4.38407
lhand -25.8696 -4.22123
lfingers 7.12502
lthumb 0.671694 25.7575
rfemur -16.014 -0.700377 18.7691
rtibia 23.2801
rfoot -12.4148 0.715887
rtoes 14.4349
lfemur -14.3535 6.50435 -17.4451
ltibia 20.3385
lfoot -9.06443 5.65872
ltoes 2.47894
501
root 0.365779 17.7328 -2.63089 6.4609 -0.59719 -1.2324
lowerback -0.792353 -0.0468607 -0.056177
upperback 4.0519 -0.112505 1.28536
thorax 4.62365 -0.0853684 1.35318
lowerneck -11.826 0.342753 -2.13962
upperneck 36.3863 0.56473 1.46224
head 14.474 0.144332 1.06873
rclavicle 2.83268e-015 1.39149e-015
rhumerus -21.7925 -13.3717 -83.2739
rradius 24.1061
rwrist 32.0548
rhand -18.6524 -25.8303
rfingers 7.12502
rthumb 7.64067 -55.6723
lclavicle 2.83268e-015 1.39149e-015
lhumerus -19.2368 -1.6701 88.6771
lradius 18.3199
lwrist 4.37568
lhand -25.8692 -4.21977
lfingers 7.12502
lthumb 0.672109 25.7589
rfemur -16.0158 -0.698963 18.767
rtibia 23.2727
rfoot -12.4094 0.709285
rtoes 14.4322
lfemur -14.359 6.50549 -17.4478
ltibia 20.334
lfoot -9.05853 5.65063
ltoes 2.47715
502
root 0.366217 17.7329 -2.63159 6.46307 -0.593925 -1.23058
lowerback -0.801973 -0.0456668 -0.0528524
upperback 4.05283 -0.110916 1.28098
thorax 4.63004 -0.0843842 1.34689
lowerneck -11.828 0.343148 -2.13169
upperneck 36.3902 0.565698 1.45564
head 14.4763 0.14494 1.06483
rclavicle 2.03754e-015 1.98785e-015
rhumerus -21.795 -13.4001 -83.2698
rradius 24.1079
rwrist 32.0553
rhand -18.6242 -25.8422
rfingers 7.12502
rthumb 7.66788 -55.6831
lclavicle 2.03754e-015 1.98785e-015
lhumerus -19.2404 -1.6459 88.6778
lradius 18.3092
lwrist 4.36451
lhand -25.8819 -4.2506
lfingers 7.12502
lthumb 0.65983 25.7281
rfemur -16.0184 -0.695264 18.7632
rtibia 23.2688
rfoot -12.4057 0.700822
rtoes 14.4279
lfemur -14.3622 6.50561 -17.4517
ltibia 20.327
lfoot -9.0513 5.64369
ltoes 2.47535
503
root 0.366675 17.733 -2.63217 6.46427 -0.593187 -1.22784
lowerback -0.811286 -0.0446568 -0.0522588
upperback 4.05337 -0.109509 1.27735
thorax 4.63585 -0.0836059 1.34288
lowerneck -11.828 0.345004 -2.12289
upperneck 36.395 0.569649 1.44597
head 14.4785 0.146519 1.05996
rclavicle -1.04362e-015 1.98785e-016
rhumerus -21.7988 -13.4289 -83.2643
rradius 24.1085
rwrist 32.0595
rhand -18.5979 -25.8561
rfingers 7.12502
rthumb 7.69329 -55.6961
lclavicle -1.04362e-015 1.98785e-016
lhumerus -19.2489 -1.61675 88.6784
lradius 18.2993
lwrist 4.34923
lhand -25.9059 -4.30296
lfingers 7.12502
lthumb 0.636656 25.6758
rfemur -16.0217 -0.689122 18.7581
rtibia 23.2688
rfoot -12.404 0.692734
rtoes 14.4235
lfemur -14.3622 6.5088 -17.4569
ltibia 20.3174
lfoot -9.0443 5.63636
ltoes 2.47294
504
root 0.367145 17.7331 -2.63275 6.46495 -0.593249 -1.22708
lowerback -0.820224 -0.0442029 -0.0506322
upperback 4.05505 -0.10893 1.27475
thorax 4.64266 -0.0832306 1.33933
lowerneck -11.8329 0.347553 -2.11194
upperneck 36.4024 0.575383 1.43286
head 14.4832 0.148663 1.05364
rclavicle -8.44835e-016 -1.31198e-014
rhumerus -21.7987 -13.4629 -83.2584
rradius 24.1048
rwrist 32.0709
rhand -18.5827 -25.8645
rfingers 7.12502
rthumb 7.70792 -55.704
lclavicle -8.44835e-016 -1.31198e-014
lhumerus -19.2586 -1.58468 88.6782
lradius 18.2914
lwrist 4.33231
lhand -25.9272 -4.33893
lfingers 7.12502
lthumb 0.616026 25.6399
rfemur -16.0249 -0.680945 18.7551
rtibia 23.2693
rfoot -12.4013 0.68321
rtoes 14.4163
lfemur -14.3614 6.51216 -17.4595
ltibia 20.3083
lfoot -9.03902 5.62961
ltoes 2.48147
505
root 0.367633 17.7331 -2.63329 6.46423 -0.594341 -1.22451
lowerback -0.828174 -0.0443656 -0.0514452
upperback 4.05684 -0.109098 1.27234
thorax 4.64905 -0.0833219 1.33731
lowerneck -11.8353 0.349658 -2.10402
upperneck 36.4082 0.580939 1.42048
head 14.4864 0.150415 1.04809
rclavicle -1.14301e-015 9.93923e-016
rhumerus -21.801 -13.4962 -83.251
rradius 24.1023
rwrist 32.0855
rhand -18.5784 -25.8649
rfingers 7.12502
rthumb 7.71204 -55.7042
lclavicle -1.14301e-015 9.93923e-016
lhumerus -19.272 -1.5505 88.678
lradius 18.2851
lwrist 4.31436
lhand -25.9464 -4.36354
lfingers 7.12502
lthumb 0.597547 25.6154
rfemur -16.0264 -0.67233 18.75
rtibia 23.2696
rfoot -12.3991 0.673783
rtoes 14.4101
lfemur -14.3587 6.51735 -17.4642
ltibia 20.2994
lfoot -9.03674 5.6228
ltoes 2.49448
